<svg xmlns="http://www.w3.org/2000/svg" version="1.1" xmlns:xlink="http://www.w3.org/1999/xlink" xmlns:svgjs="http://svgjs.dev/svgjs" width="1000" height="623" viewBox="0 0 1000 623"><g transform="matrix(1,0,0,1,-0.6060606060606233,0.2522267206477409)"><svg viewBox="0 0 396 247" data-background-color="#ffffff" preserveAspectRatio="xMidYMid meet" height="623" width="1000" xmlns="http://www.w3.org/2000/svg" xmlns:xlink="http://www.w3.org/1999/xlink"><g id="tight-bounds" transform="matrix(1,0,0,1,0.2400000000000091,-0.09999999999999432)"><svg viewBox="0 0 395.52 247.2" height="247.2" width="395.52"><g><svg></svg></g><g><svg viewBox="0 0 395.52 247.2" height="247.2" width="395.52"><g transform="matrix(1,0,0,1,39.55199999999999,86.88779688779687)"><svg viewBox="0 0 316.416 73.42440622440624" height="73.42440622440624" width="316.416"><g><svg viewBox="0 0 316.416 73.42440622440624" height="73.42440622440624" width="316.416"><g><svg viewBox="0 0 316.416 73.42440622440624" height="73.42440622440624" width="316.416"><g><svg viewBox="0 0 316.416 73.42440622440624" height="73.42440622440624" width="316.416"><g id="textblocktransform"><svg viewBox="0 0 316.416 73.42440622440624" height="73.42440622440624" width="316.416" id="textblock"><g><svg viewBox="0 0 316.416 73.42440622440624" height="73.42440622440624" width="316.416"><g transform="matrix(1,0,0,1,0,0)"><svg width="316.416" viewBox="-3 -38.900001525878906 184.1300048828125 43.5" height="73.42440622440624" data-palette-color="#202046"><path d="M29.9 0L22.85 0 20.7-8.55 10-8.55 7.85 0 1 0 10.9-34.9 20-34.9 29.9 0ZM18.95-14.3L16.8-22.35 15.7-28.4 14.9-28.4 13.8-22.35 11.75-14.3 18.95-14.3ZM48.5 0L33.15 0 33.15-5.65 37.25-5.65 37.25-29.25 33.15-29.25 33.15-34.9 48.5-34.9 48.5-29.25 44.4-29.25 44.4-5.65 48.5-5.65 48.5 0ZM75.65-28.65L67.3-28.65 67.3 0 60.15 0 60.15-28.65 51.8-28.65 51.8-34.9 75.65-34.9 75.65-28.65ZM98.29 0L94.24 0Q90.14 0 89.79-4.55L89.79-4.55 89.14-4.55Q88.74-2.15 86.99-0.78 85.24 0.6 82.54 0.6L82.54 0.6Q78.99 0.6 77.19-1.43 75.39-3.45 75.39-7.05L75.39-7.05Q75.39-11.35 78.02-13.3 80.64-15.25 85.34-15.25L85.34-15.25 89.14-15.25 89.14-17.3Q89.14-19.35 88.29-20.35 87.44-21.35 85.44-21.35L85.44-21.35Q83.69-21.35 82.52-20.48 81.34-19.6 80.44-18.15L80.44-18.15 76.29-21.85Q77.89-24.2 80.19-25.53 82.49-26.85 86.09-26.85L86.09-26.85Q91.24-26.85 93.69-24.45 96.14-22.05 96.14-17.3L96.14-17.3 96.14-5.45 98.29-5.45 98.29 0ZM85.34-4.3L85.34-4.3Q86.89-4.3 88.02-5.18 89.14-6.05 89.14-7.9L89.14-7.9 89.14-11.15 85.99-11.15Q82.39-11.15 82.39-8.15L82.39-8.15 82.39-7.2Q82.39-5.7 83.17-5 83.94-4.3 85.34-4.3ZM109.74 0L102.74 0 102.74-26.25 109.74-26.25 109.74-20.65 110.54-20.65Q110.69-21.75 111.04-22.78 111.39-23.8 112.02-24.58 112.64-25.35 113.59-25.8 114.54-26.25 115.84-26.25L115.84-26.25 117.09-26.25 117.09-19.15 115.29-19.15Q112.44-19.15 111.09-18.35 109.74-17.55 109.74-15.3L109.74-15.3 109.74 0ZM128.09 0L121.09 0 121.09-26.25 128.09-26.25 128.09-20.65 128.89-20.65Q129.04-21.75 129.39-22.78 129.74-23.8 130.36-24.58 130.99-25.35 131.94-25.8 132.89-26.25 134.19-26.25L134.19-26.25 135.44-26.25 135.44-19.15 133.64-19.15Q130.79-19.15 129.44-18.35 128.09-17.55 128.09-15.3L128.09-15.3 128.09 0ZM148.84 0.6L148.84 0.6Q143.34 0.6 140.51-2.75 137.69-6.1 137.69-13.1L137.69-13.1Q137.69-20.1 140.51-23.48 143.34-26.85 148.84-26.85L148.84-26.85Q154.34-26.85 157.16-23.48 159.99-20.1 159.99-13.1L159.99-13.1Q159.99-6.1 157.16-2.75 154.34 0.6 148.84 0.6ZM148.84-4.95L148.84-4.95Q152.69-4.95 152.69-9.45L152.69-9.45 152.69-16.8Q152.69-21.3 148.84-21.3L148.84-21.3Q144.99-21.3 144.99-16.8L144.99-16.8 144.99-9.45Q144.99-4.95 148.84-4.95ZM176.63 0L172.38 0Q168.78 0 167.16-1.6 165.53-3.2 165.53-6.7L165.53-6.7 165.53-20.8 162.23-20.8 162.23-26.25 163.83-26.25Q165.23-26.25 165.73-26.85 166.23-27.45 166.23-28.8L166.23-28.8 166.23-33.35 172.53-33.35 172.53-26.25 177.13-26.25 177.13-20.8 172.53-20.8 172.53-5.45 176.63-5.45 176.63 0Z" opacity="1" transform="matrix(1,0,0,1,0,0)" fill="#202046" class="wordmark-text-0" data-fill-palette-color="primary" id="text-0"></path></svg></g></svg></g></svg></g></svg></g></svg></g></svg></g></svg></g><g mask="url(&quot;#b644c764-4a00-4f5a-a9db-a2458126cbee&quot;)"><g transform="matrix(2.900736699661692, 0, 0, 2.900736699661692, 75.15956844813809, 1)"><svg xmlns="http://www.w3.org/2000/svg" xmlns:xlink="http://www.w3.org/1999/xlink" version="1.1" x="0" y="0" viewBox="7.734947204589844 7.735245704650879 84.53054809570312 84.5302505493164" enable-background="new 0 0 100 100" xml:space="preserve" height="84.5302505493164" width="84.53054809570312" class="icon-none" data-fill-palette-color="accent" id="none"><g fill="#fe633d" data-fill-palette-color="accent"><g fill="#fe633d" data-fill-palette-color="accent"><g fill="#fe633d" data-fill-palette-color="accent"><path d="M28.368 14.767C42.162 16.327 48.04 25.762 49.69 30.695c1.07 3.198 1.472 5.094 1.472 9.275 0 0.817 0.044 2.076-1.054 2.216-0.77 0.099-1.209-0.509-1.273-1.182-0.289-3.026-1.159-6.569-4.008-9.85-2.253-2.594-7.472-7.802-16.652-7.021-2.669 0.228-5.052-1.868-5.129-4.564C22.964 16.703 25.531 14.446 28.368 14.767z" fill="#fe633d" data-fill-palette-color="accent"></path><path d="M71.633 85.232c-13.794-1.561-19.671-10.995-21.322-15.929-1.07-3.198-1.472-5.094-1.472-9.275 0-0.817-0.044-2.076 1.054-2.216 0.77-0.099 1.209 0.509 1.273 1.182 0.289 3.026 1.159 6.569 4.008 9.85 2.253 2.594 7.472 7.802 16.652 7.021 2.669-0.228 5.052 1.868 5.129 4.564C77.037 83.296 74.47 85.553 71.633 85.232z" fill="#fe633d" data-fill-palette-color="accent"></path></g><g fill="#fe633d" data-fill-palette-color="accent"><path d="M14.768 71.633c1.56-13.794 10.995-19.672 15.928-21.322 3.198-1.07 5.094-1.472 9.276-1.472 0.817 0 2.076-0.045 2.216 1.054 0.098 0.77-0.509 1.209-1.182 1.273-3.026 0.288-6.569 1.159-9.849 4.008-2.594 2.254-7.802 7.473-7.021 16.652 0.228 2.669-1.868 5.052-4.564 5.129C16.704 77.036 14.447 74.47 14.768 71.633z" fill="#fe633d" data-fill-palette-color="accent"></path><path d="M85.233 28.367c-1.56 13.794-10.995 19.672-15.928 21.322-3.198 1.07-5.094 1.472-9.276 1.472-0.817 0-2.076 0.045-2.216-1.054-0.098-0.77 0.509-1.209 1.182-1.273 3.026-0.288 6.569-1.159 9.849-4.008 2.594-2.254 7.802-7.473 7.021-16.652-0.228-2.669 1.868-5.052 4.564-5.129C83.297 22.964 85.554 25.53 85.233 28.367z" fill="#fe633d" data-fill-palette-color="accent"></path></g></g><g fill="#fe633d" data-fill-palette-color="accent"><g fill="#fe633d" data-fill-palette-color="accent"><path d="M13.65 30.304c12.726-5.546 22.533-0.314 26.43 3.133 2.526 2.234 3.821 3.676 5.912 7.297 0.409 0.708 1.077 1.775 0.195 2.446-0.617 0.47-1.302 0.164-1.693-0.387-1.763-2.477-4.289-5.109-8.396-6.525-3.249-1.12-10.373-3.021-17.931 2.246-2.198 1.531-5.309 0.907-6.724-1.389C9.938 34.682 11.033 31.444 13.65 30.304z" fill="#fe633d" data-fill-palette-color="accent"></path><path d="M86.351 69.695c-12.726 5.546-22.533 0.314-26.43-3.133-2.526-2.234-3.821-3.676-5.912-7.297-0.409-0.708-1.077-1.775-0.196-2.446 0.618-0.47 1.302-0.164 1.694 0.387 1.763 2.477 4.289 5.109 8.396 6.525 3.249 1.12 10.373 3.021 17.931-2.245 2.198-1.532 5.309-0.908 6.724 1.388C90.063 65.317 88.968 68.555 86.351 69.695z" fill="#fe633d" data-fill-palette-color="accent"></path></g><g fill="#fe633d" data-fill-palette-color="accent"><path d="M30.304 86.351c-5.546-12.726-0.314-22.533 3.133-26.43 2.235-2.525 3.676-3.821 7.298-5.912 0.708-0.409 1.775-1.076 2.445-0.195 0.47 0.617 0.164 1.302-0.387 1.693-2.477 1.764-5.109 4.289-6.525 8.396-1.12 3.248-3.021 10.372 2.246 17.931 1.531 2.198 0.908 5.31-1.389 6.725C34.683 90.062 31.445 88.968 30.304 86.351z" fill="#fe633d" data-fill-palette-color="accent"></path><path d="M69.696 13.649c5.546 12.726 0.314 22.533-3.133 26.43-2.234 2.526-3.675 3.821-7.297 5.913-0.708 0.408-1.775 1.076-2.446 0.195-0.47-0.618-0.163-1.303 0.388-1.694 2.477-1.763 5.109-4.288 6.525-8.396 1.12-3.249 3.021-10.372-2.246-17.932-1.532-2.198-0.908-5.309 1.388-6.724C65.318 9.938 68.556 11.032 69.696 13.649z" fill="#fe633d" data-fill-palette-color="accent"></path></g></g><g fill="#fe633d" data-fill-palette-color="accent"><g fill="#fe633d" data-fill-palette-color="accent"><path d="M8.671 51.118c8.248-11.166 19.357-11.539 24.456-10.502 3.305 0.672 5.147 1.272 8.769 3.363 0.708 0.408 1.82 0.999 1.392 2.021-0.299 0.716-1.045 0.793-1.66 0.512-2.765-1.263-6.269-2.28-10.533-1.453-3.374 0.654-10.494 2.57-14.406 10.911-1.138 2.425-4.144 3.44-6.518 2.159C7.646 56.766 6.976 53.414 8.671 51.118z" fill="#fe633d" data-fill-palette-color="accent"></path><path d="M91.329 48.882C83.081 60.047 71.971 60.42 66.874 59.383c-3.305-0.672-5.147-1.272-8.769-3.363-0.708-0.408-1.82-0.999-1.393-2.021 0.3-0.716 1.046-0.793 1.66-0.512 2.766 1.264 6.269 2.28 10.534 1.453 3.373-0.654 10.493-2.569 14.406-10.91 1.138-2.426 4.144-3.441 6.517-2.16C92.354 43.233 93.025 46.585 91.329 48.882z" fill="#fe633d" data-fill-palette-color="accent"></path></g><g fill="#fe633d" data-fill-palette-color="accent"><path d="M51.119 91.329C39.953 83.081 39.58 71.972 40.617 66.874c0.673-3.305 1.272-5.147 3.364-8.77 0.409-0.708 1-1.819 2.02-1.392 0.716 0.3 0.793 1.045 0.512 1.66-1.263 2.765-2.28 6.269-1.453 10.533 0.654 3.374 2.57 10.493 10.911 14.406 2.425 1.138 3.44 4.144 2.159 6.518C56.766 92.354 53.415 93.025 51.119 91.329z" fill="#fe633d" data-fill-palette-color="accent"></path><path d="M48.882 8.672c11.166 8.247 11.538 19.356 10.501 24.455-0.672 3.305-1.271 5.147-3.362 8.77-0.409 0.707-1 1.819-2.021 1.392-0.716-0.3-0.792-1.046-0.511-1.661 1.263-2.765 2.28-6.268 1.453-10.533-0.655-3.373-2.57-10.492-10.911-14.406-2.426-1.137-3.44-4.144-2.159-6.517C43.234 7.646 46.585 6.976 48.882 8.672z" fill="#fe633d" data-fill-palette-color="accent"></path></g></g></g></svg></g></g><mask id="b644c764-4a00-4f5a-a9db-a2458126cbee"><rect width="640" height="400" fill="white"></rect><g transform="matrix(1,0,0,1,39.55199999999999,86.88779688779687)"><svg viewBox="0 0 316.416 73.42440622440624" height="73.42440622440624" width="316.416"><g><svg viewBox="0 0 316.416 73.42440622440624" height="73.42440622440624" width="316.416"><g><svg viewBox="0 0 316.416 73.42440622440624" height="73.42440622440624" width="316.416"><g><svg viewBox="0 0 316.416 73.42440622440624" height="73.42440622440624" width="316.416"><g id="SvgjsG1044"><svg viewBox="0 0 316.416 73.42440622440624" height="73.42440622440624" width="316.416" id="SvgjsSvg1043"><g><svg viewBox="0 0 316.416 73.42440622440624" height="73.42440622440624" width="316.416"><g transform="matrix(1,0,0,1,0,0)"><svg width="316.416" viewBox="-3 -38.900001525878906 184.1300048828125 43.5" height="73.42440622440624" data-palette-color="#202046"><path d="M29.9 0L22.85 0 20.7-8.55 10-8.55 7.85 0 1 0 10.9-34.9 20-34.9 29.9 0ZM18.95-14.3L16.8-22.35 15.7-28.4 14.9-28.4 13.8-22.35 11.75-14.3 18.95-14.3ZM48.5 0L33.15 0 33.15-5.65 37.25-5.65 37.25-29.25 33.15-29.25 33.15-34.9 48.5-34.9 48.5-29.25 44.4-29.25 44.4-5.65 48.5-5.65 48.5 0ZM75.65-28.65L67.3-28.65 67.3 0 60.15 0 60.15-28.65 51.8-28.65 51.8-34.9 75.65-34.9 75.65-28.65ZM98.29 0L94.24 0Q90.14 0 89.79-4.55L89.79-4.55 89.14-4.55Q88.74-2.15 86.99-0.78 85.24 0.6 82.54 0.6L82.54 0.6Q78.99 0.6 77.19-1.43 75.39-3.45 75.39-7.05L75.39-7.05Q75.39-11.35 78.02-13.3 80.64-15.25 85.34-15.25L85.34-15.25 89.14-15.25 89.14-17.3Q89.14-19.35 88.29-20.35 87.44-21.35 85.44-21.35L85.44-21.35Q83.69-21.35 82.52-20.48 81.34-19.6 80.44-18.15L80.44-18.15 76.29-21.85Q77.89-24.2 80.19-25.53 82.49-26.85 86.09-26.85L86.09-26.85Q91.24-26.85 93.69-24.45 96.14-22.05 96.14-17.3L96.14-17.3 96.14-5.45 98.29-5.45 98.29 0ZM85.34-4.3L85.34-4.3Q86.89-4.3 88.02-5.18 89.14-6.05 89.14-7.9L89.14-7.9 89.14-11.15 85.99-11.15Q82.39-11.15 82.39-8.15L82.39-8.15 82.39-7.2Q82.39-5.7 83.17-5 83.94-4.3 85.34-4.3ZM109.74 0L102.74 0 102.74-26.25 109.74-26.25 109.74-20.65 110.54-20.65Q110.69-21.75 111.04-22.78 111.39-23.8 112.02-24.58 112.64-25.35 113.59-25.8 114.54-26.25 115.84-26.25L115.84-26.25 117.09-26.25 117.09-19.15 115.29-19.15Q112.44-19.15 111.09-18.35 109.74-17.55 109.74-15.3L109.74-15.3 109.74 0ZM128.09 0L121.09 0 121.09-26.25 128.09-26.25 128.09-20.65 128.89-20.65Q129.04-21.75 129.39-22.78 129.74-23.8 130.36-24.58 130.99-25.35 131.94-25.8 132.89-26.25 134.19-26.25L134.19-26.25 135.44-26.25 135.44-19.15 133.64-19.15Q130.79-19.15 129.44-18.35 128.09-17.55 128.09-15.3L128.09-15.3 128.09 0ZM148.84 0.6L148.84 0.6Q143.34 0.6 140.51-2.75 137.69-6.1 137.69-13.1L137.69-13.1Q137.69-20.1 140.51-23.48 143.34-26.85 148.84-26.85L148.84-26.85Q154.34-26.85 157.16-23.48 159.99-20.1 159.99-13.1L159.99-13.1Q159.99-6.1 157.16-2.75 154.34 0.6 148.84 0.6ZM148.84-4.95L148.84-4.95Q152.69-4.95 152.69-9.45L152.69-9.45 152.69-16.8Q152.69-21.3 148.84-21.3L148.84-21.3Q144.99-21.3 144.99-16.8L144.99-16.8 144.99-9.45Q144.99-4.95 148.84-4.95ZM176.63 0L172.38 0Q168.78 0 167.16-1.6 165.53-3.2 165.53-6.7L165.53-6.7 165.53-20.8 162.23-20.8 162.23-26.25 163.83-26.25Q165.23-26.25 165.73-26.85 166.23-27.45 166.23-28.8L166.23-28.8 166.23-33.35 172.53-33.35 172.53-26.25 177.13-26.25 177.13-20.8 172.53-20.8 172.53-5.45 176.63-5.45 176.63 0Z" opacity="1" transform="matrix(1,0,0,1,0,0)" fill="#202046" class="wordmark-text-0" data-fill-palette-color="primary" id="SvgjsPath1042" stroke-width="7" stroke="black" stroke-linejoin="round"></path></svg></g></svg></g></svg></g></svg></g></svg></g></svg></g></svg></g></mask></svg></g><defs></defs></svg><rect width="395.52" height="247.2" fill="none" stroke="none" visibility="hidden"></rect></g></svg></g></svg>